<svg
  width="20"
  height="20"
  viewBox="0 0 48 48"
  fill="none"
  xmlns="http://www.w3.org/2000/svg"
>
  <g clipPath="url(#clip0_17_40)">
    <path
      d="M47.5 24.5C47.5 22.8 47.3 21.2 47 19.7H24V28.3H37.2C36.7 31.1 34.9 33.4 32.2 34.9V40.1H39.7C44.1 36.1 47.5 30.9 47.5 24.5Z"
      fill="#4285F4"
    />
    <path
      d="M24 48C30.5 48 35.9 45.9 39.7 40.1L32.2 34.9C30.1 36.3 27.3 37.2 24 37.2C17.7 37.2 12.2 33.1 10.3 27.6H2.5V32.9C6.3 40.1 14.5 48 24 48Z"
      fill="#34A853"
    />
    <path
      d="M10.3 27.6C9.8 26.2 9.5 24.7 9.5 23.1C9.5 21.5 9.8 20 10.3 18.6V13.1H2.5C0.9 16.3 0 19.6 0 23.1C0 26.6 0.9 29.9 2.5 33.1L10.3 27.6Z"
      fill="#FBBC05"
    />
    <path
      d="M24 9.8C27.7 9.8 30.7 11.1 32.8 13.1L39.9 6C35.9 2.3 30.5 0 24 0C14.5 0 6.3 7.9 2.5 13.1L10.3 18.6C12.2 13.1 17.7 9.8 24 9.8Z"
      fill="#EA4335"
    />
  </g>
  <defs>
    <clipPath id="clip0_17_40">
      <rect width="48" height="48" fill="white" />
    </clipPath>
  </defs>
</svg>