<svg preserveAspectRatio="none" height="100%" width="100%" viewBox="0 0 574 981" fill="none" xmlns="http://www.w3.org/2000/svg">
<rect x="2.32425" y="2.32361" width="569.353" height="976.121" stroke="#F2F2F2" stroke-width="3.68513"/>
<line x1="0.480713" y1="82.7634" x2="573.519" y2="82.7634" stroke="#F2F2F2" stroke-width="3.68513"/>
<line x1="0.480713" y1="488.542" x2="573.519" y2="488.542" stroke="#F2F2F2" stroke-width="3.68513"/>
<line x1="0.480713" y1="896.299" x2="573.519" y2="896.299" stroke="#F2F2F2" stroke-width="3.68513"/>
<line x1="22.2573" y1="123.341" x2="73.7219" y2="123.341" stroke="#F2F2F2" stroke-width="3.68513"/>
<line x1="22.2573" y1="408.376" x2="73.7219" y2="408.376" stroke="#F2F2F2" stroke-width="3.68513"/>
<line x1="22.2573" y1="570.687" x2="73.7219" y2="570.687" stroke="#F2F2F2" stroke-width="3.68513"/>
<line x1="22.2573" y1="855.722" x2="73.7219" y2="855.722" stroke="#F2F2F2" stroke-width="3.68513"/>
<line x1="101.429" y1="123.341" x2="152.894" y2="123.341" stroke="#F2F2F2" stroke-width="3.68513"/>
<line x1="101.429" y1="408.376" x2="152.894" y2="408.376" stroke="#F2F2F2" stroke-width="3.68513"/>
<line x1="101.429" y1="570.687" x2="152.894" y2="570.687" stroke="#F2F2F2" stroke-width="3.68513"/>
<line x1="101.429" y1="855.722" x2="152.894" y2="855.722" stroke="#F2F2F2" stroke-width="3.68513"/>
<line x1="200.402" y1="123.341" x2="251.867" y2="123.341" stroke="#F2F2F2" stroke-width="3.68513"/>
<line x1="200.402" y1="408.376" x2="251.867" y2="408.376" stroke="#F2F2F2" stroke-width="3.68513"/>
<line x1="200.402" y1="570.687" x2="251.867" y2="570.687" stroke="#F2F2F2" stroke-width="3.68513"/>
<line x1="200.402" y1="855.722" x2="251.867" y2="855.722" stroke="#F2F2F2" stroke-width="3.68513"/>
<line x1="322.138" y1="123.341" x2="373.602" y2="123.341" stroke="#F2F2F2" stroke-width="3.68513"/>
<line x1="322.138" y1="408.376" x2="373.602" y2="408.376" stroke="#F2F2F2" stroke-width="3.68513"/>
<line x1="322.138" y1="570.687" x2="373.602" y2="570.687" stroke="#F2F2F2" stroke-width="3.68513"/>
<line x1="322.138" y1="855.722" x2="373.602" y2="855.722" stroke="#F2F2F2" stroke-width="3.68513"/>
<line x1="421.104" y1="123.341" x2="472.568" y2="123.341" stroke="#F2F2F2" stroke-width="3.68513"/>
<line x1="421.104" y1="408.376" x2="472.568" y2="408.376" stroke="#F2F2F2" stroke-width="3.68513"/>
<line x1="421.104" y1="570.687" x2="472.568" y2="570.687" stroke="#F2F2F2" stroke-width="3.68513"/>
<line x1="421.104" y1="855.722" x2="472.568" y2="855.722" stroke="#F2F2F2" stroke-width="3.68513"/>
<line x1="500.281" y1="123.341" x2="551.746" y2="123.341" stroke="#F2F2F2" stroke-width="3.68513"/>
<line x1="500.281" y1="408.376" x2="551.746" y2="408.376" stroke="#F2F2F2" stroke-width="3.68513"/>
<line x1="500.281" y1="570.687" x2="551.746" y2="570.687" stroke="#F2F2F2" stroke-width="3.68513"/>
<line x1="500.281" y1="855.722" x2="551.746" y2="855.722" stroke="#F2F2F2" stroke-width="3.68513"/>
<line x1="49.8277" y1="125.184" x2="49.8277" y2="174.669" stroke="#F2F2F2" stroke-width="3.68513"/>
<line x1="49.8277" y1="238.01" x2="49.8277" y2="287.495" stroke="#F2F2F2" stroke-width="3.68513"/>
<line x1="49.8277" y1="385.475" x2="49.8277" y2="434.96" stroke="#F2F2F2" stroke-width="3.68513"/>
<line x1="49.8277" y1="547.788" x2="49.8277" y2="597.273" stroke="#F2F2F2" stroke-width="3.68513"/>
<line x1="49.8277" y1="694.263" x2="49.8277" y2="743.748" stroke="#F2F2F2" stroke-width="3.68513"/>
<line x1="49.8277" y1="808.079" x2="49.8277" y2="857.564" stroke="#F2F2F2" stroke-width="3.68513"/>
<line x1="129.007" y1="125.184" x2="129.007" y2="174.669" stroke="#F2F2F2" stroke-width="3.68513"/>
<line x1="129.007" y1="238.01" x2="129.007" y2="287.495" stroke="#F2F2F2" stroke-width="3.68513"/>
<line x1="129.007" y1="385.475" x2="129.007" y2="434.96" stroke="#F2F2F2" stroke-width="3.68513"/>
<line x1="129.007" y1="547.788" x2="129.007" y2="597.273" stroke="#F2F2F2" stroke-width="3.68513"/>
<line x1="129.007" y1="694.263" x2="129.007" y2="743.748" stroke="#F2F2F2" stroke-width="3.68513"/>
<line x1="129.007" y1="808.079" x2="129.007" y2="857.564" stroke="#F2F2F2" stroke-width="3.68513"/>
<line x1="448.681" y1="125.184" x2="448.681" y2="174.669" stroke="#F2F2F2" stroke-width="3.68513"/>
<line x1="448.681" y1="238.01" x2="448.681" y2="287.495" stroke="#F2F2F2" stroke-width="3.68513"/>
<line x1="448.681" y1="385.475" x2="448.681" y2="434.96" stroke="#F2F2F2" stroke-width="3.68513"/>
<line x1="448.681" y1="547.788" x2="448.681" y2="597.273" stroke="#F2F2F2" stroke-width="3.68513"/>
<line x1="448.681" y1="694.263" x2="448.681" y2="743.748" stroke="#F2F2F2" stroke-width="3.68513"/>
<line x1="448.681" y1="808.079" x2="448.681" y2="857.564" stroke="#F2F2F2" stroke-width="3.68513"/>
<line x1="527.859" y1="125.184" x2="527.859" y2="174.669" stroke="#F2F2F2" stroke-width="3.68513"/>
<line x1="527.859" y1="238.01" x2="527.859" y2="287.495" stroke="#F2F2F2" stroke-width="3.68513"/>
<line x1="527.859" y1="385.475" x2="527.859" y2="434.96" stroke="#F2F2F2" stroke-width="3.68513"/>
<line x1="527.859" y1="547.788" x2="527.859" y2="597.273" stroke="#F2F2F2" stroke-width="3.68513"/>
<line x1="527.859" y1="694.263" x2="527.859" y2="743.748" stroke="#F2F2F2" stroke-width="3.68513"/>
<line x1="527.859" y1="808.079" x2="527.859" y2="857.564" stroke="#F2F2F2" stroke-width="3.68513"/>
<line x1="0.480713" y1="260.91" x2="573.519" y2="260.91" stroke="#F2F2F2" stroke-width="3.68513"/>
<line x1="0.480713" y1="717.163" x2="573.519" y2="717.163" stroke="#F2F2F2" stroke-width="3.68513"/>
</svg>
